<svg xmlns="http://www.w3.org/2000/svg"  viewBox="0 0 100 100" width="100px" height="100px"><path d="M 50.023438 17 A 1.0001 1.0001 0 0 0 49.265625 17.320312 L 38.917969 28.488281 L 24.613281 31.855469 L 17.869141 28.484375 A 1.0001 1.0001 0 0 0 17.384766 28.378906 A 1.0001 1.0001 0 0 0 16.527344 28.931641 C 16.527344 28.931641 15 32.030781 15 37.199219 C 15 40.335298 16.049751 42.678311 17.146484 44.351562 L 16.316406 44.074219 A 1.0001 1.0001 0 0 0 15 45.021484 L 15 46.443359 C 15 48.057759 14.78995 51.739756 15.816406 55.335938 C 16.824468 58.867673 19.195108 62.431501 24.003906 63.648438 C 24.004521 63.648593 24.005244 63.648282 24.005859 63.648438 A 0.50005 0.50005 0 0 0 24.126953 63.691406 L 24.263672 63.71875 L 25.832031 64.042969 L 24.923828 67.083984 C 24.733654 67.720726 24.814202 68.411895 25.148438 68.988281 C 25.480573 69.562429 26.033522 69.974481 26.677734 70.130859 L 26.677734 70.132812 L 39.335938 73.169922 L 48.271484 82.273438 L 48.273438 82.275391 C 48.727643 82.73633 49.349447 83 50.001953 83 C 50.653012 83 51.277066 82.735299 51.730469 82.273438 L 60.664062 73.169922 L 73.320312 70.132812 C 73.965913 69.978208 74.522081 69.562635 74.853516 68.986328 C 75.186899 68.410294 75.268106 67.720082 75.078125 67.083984 L 75.076172 67.083984 L 74.171875 64.060547 L 75.96875 63.693359 A 0.50005 0.50005 0 0 0 76.132812 63.628906 C 80.86019 62.382551 83.19803 58.844566 84.193359 55.339844 C 85.215518 51.740649 85 48.05618 85 46.443359 L 85 45.021484 A 1.0001 1.0001 0 0 0 83.683594 44.074219 L 82.853516 44.351562 C 83.950249 42.678311 85 40.335298 85 37.199219 C 85 32.030781 83.472656 28.931641 83.472656 28.931641 A 1.0001 1.0001 0 0 0 82.585938 28.378906 A 1.0001 1.0001 0 0 0 82.130859 28.484375 L 75.388672 31.855469 L 61.083984 28.488281 L 50.734375 17.320312 A 1.0001 1.0001 0 0 0 50.023438 17 z M 49.5 20.011719 L 49.5 31.748047 C 43.852352 31.92166 38.941492 34.993852 36.193359 39.533203 L 28.845703 35.287109 A 0.50005 0.50005 0 0 0 28.558594 35.21875 A 0.50005 0.50005 0 0 0 28.345703 36.154297 L 35.695312 40.400391 C 34.525525 42.634672 33.855469 45.170291 33.855469 47.865234 C 33.855469 50.670995 34.574822 53.309525 35.835938 55.609375 L 25.160156 61.853516 L 29.365234 48.011719 A 0.50005 0.50005 0 0 0 29.365234 47.722656 L 25.373047 34.435547 L 26.78125 35.25 A 0.50005 0.50005 0 1 0 27.28125 34.384766 L 25.925781 33.601562 L 39.673828 30.365234 A 1.0001 1.0001 0 0 0 40.177734 30.072266 L 49.5 20.011719 z M 50.5 20.011719 L 59.824219 30.072266 A 1.0001 1.0001 0 0 0 60.328125 30.365234 L 73.640625 33.498047 L 63.677734 39.324219 C 60.906335 34.899481 56.060598 31.918984 50.5 31.748047 L 50.5 20.011719 z M 17.986328 30.777344 L 24.158203 33.863281 L 28.363281 47.865234 L 24.183594 61.628906 C 20.30864 60.540101 18.605862 57.826671 17.738281 54.787109 C 16.831738 51.611041 17 48.20696 17 46.443359 L 17 46.410156 L 19.951172 47.392578 A 1.0001 1.0001 0 0 0 20.845703 45.628906 C 20.845703 45.628906 17 42.964024 17 37.199219 C 17 33.615548 17.615368 31.733013 17.986328 30.777344 z M 82.013672 30.777344 C 82.384632 31.733013 83 33.615548 83 37.199219 C 83 42.964024 79.154297 45.628906 79.154297 45.628906 A 1.0001 1.0001 0 0 0 80.048828 47.392578 L 83 46.410156 L 83 46.443359 C 83 48.208539 83.170419 51.613913 82.267578 54.792969 C 81.408578 57.817654 79.72661 60.519638 75.900391 61.621094 L 71.636719 47.863281 L 75.841797 33.865234 L 82.013672 30.777344 z M 49.939453 32.726562 A 0.50005 0.50005 0 0 0 50.0625 32.726562 C 58.403099 32.760627 65.144531 39.516572 65.144531 47.865234 C 65.144531 56.21722 58.397927 62.979083 50.052734 63.007812 A 0.50005 0.50005 0 0 0 49.992188 63.003906 A 0.50005 0.50005 0 0 0 49.941406 63.007812 C 41.598942 62.975908 34.855469 56.215246 34.855469 47.865234 C 34.855469 39.515914 41.597945 32.759569 49.939453 32.726562 z M 74.755859 34.005859 L 70.634766 47.722656 A 0.50005 0.50005 0 0 0 70.634766 48.013672 L 74.947266 61.921875 L 64.126953 55.669922 C 65.409397 53.355479 66.144531 50.696385 66.144531 47.865234 C 66.144531 45.083273 65.440478 42.465469 64.199219 40.179688 L 74.755859 34.005859 z M 50 34.318359 C 42.574212 34.318359 36.543365 40.329501 36.503906 47.746094 L 36.5 47.746094 C 36.500038 47.75843 36.501884 47.770864 36.501953 47.783203 C 36.501922 47.795071 36.5 47.806485 36.5 47.818359 C 36.5 48.081546 36.507798 48.343743 36.523438 48.605469 L 36.542969 48.603516 C 36.754752 51.91276 38.187359 55.230275 42.470703 57.349609 C 42.561533 58.845144 43.755962 60.064453 45.273438 60.064453 L 54.726562 60.064453 C 56.236475 60.064453 57.419631 58.854209 57.521484 57.369141 C 61.909834 55.21196 63.317014 51.800687 63.46875 48.419922 L 63.486328 48.419922 C 63.495735 48.219275 63.5 48.019232 63.5 47.818359 C 63.5 47.806485 63.498078 47.795071 63.498047 47.783203 C 63.498041 47.770207 63.50004 47.757133 63.5 47.744141 L 63.496094 47.744141 C 63.455576 40.328454 57.42513 34.318359 50 34.318359 z M 50 35.318359 C 56.899249 35.318359 62.481003 40.891896 62.498047 47.787109 C 62.500148 51.205933 61.442745 54.465593 56.890625 56.599609 A 0.50005 0.50005 0 0 0 56.603516 57.015625 L 56.591797 57.162109 A 0.50005 0.50005 0 0 0 56.591797 57.199219 C 56.591797 58.235183 55.762528 59.064453 54.726562 59.064453 L 45.273438 59.064453 C 44.239708 59.064453 43.413718 58.23791 43.410156 57.205078 L 43.417969 57.089844 A 0.50005 0.50005 0 0 0 43.132812 56.599609 C 38.578891 54.465199 37.520519 51.203867 37.501953 47.783203 C 37.521115 40.889808 43.102066 35.318359 50 35.318359 z M 46.033203 42.029297 A 0.50005 0.50005 0 0 0 45.683594 42.888672 L 47.005859 44.208984 A 0.50005 0.50005 0 1 0 47.712891 43.501953 L 46.390625 42.181641 A 0.50005 0.50005 0 0 0 46.033203 42.029297 z M 53.953125 42.029297 A 0.50005 0.50005 0 0 0 53.609375 42.181641 L 52.287109 43.501953 A 0.50005 0.50005 0 1 0 52.994141 44.208984 L 54.316406 42.888672 A 0.50005 0.50005 0 0 0 53.953125 42.029297 z M 43.396484 44.677734 C 40.936484 44.677734 38.935547 46.678672 38.935547 49.138672 C 38.935547 51.598672 40.935484 53.599609 43.396484 53.599609 C 45.857484 53.599609 47.859375 51.599672 47.859375 49.138672 C 47.859375 46.678672 45.856484 44.677734 43.396484 44.677734 z M 56.603516 44.677734 C 54.143516 44.677734 52.140625 46.678672 52.140625 49.138672 C 52.140625 51.598672 54.142516 53.599609 56.603516 53.599609 C 59.064516 53.599609 61.064453 51.599672 61.064453 49.138672 C 61.064453 46.678672 59.063516 44.677734 56.603516 44.677734 z M 49.992188 49.980469 A 0.50005 0.50005 0 0 0 49.583984 50.203125 L 46.943359 54.164062 A 0.50005 0.50005 0 0 0 47.359375 54.941406 L 52.640625 54.941406 A 0.50005 0.50005 0 0 0 53.056641 54.164062 L 50.416016 50.203125 A 0.50005 0.50005 0 0 0 49.992188 49.980469 z M 50 51.382812 L 51.707031 53.941406 L 48.292969 53.941406 L 50 51.382812 z M 36.355469 56.464844 C 39.132724 60.859094 43.963078 63.81412 49.5 63.984375 L 49.5 76.457031 L 39.810547 66 A 0.50005 0.50005 0 0 0 39.544922 65.849609 L 25.322266 62.916016 L 36.355469 56.464844 z M 63.607422 56.525391 L 74.701172 62.933594 L 60.457031 65.849609 A 0.50005 0.50005 0 0 0 60.189453 66 L 50.5 76.457031 L 50.5 63.984375 C 56.011719 63.814895 60.824153 60.886651 63.607422 56.525391 z M 27.798828 64.449219 L 39.185547 66.796875 L 49.632812 78.072266 A 0.50005 0.50005 0 0 0 50.367188 78.072266 L 60.814453 66.796875 L 72.205078 64.464844 L 73.160156 67.65625 C 73.193986 67.769508 73.180817 67.884761 73.123047 67.984375 L 73.121094 67.986328 L 73.121094 67.988281 C 73.062354 68.090692 72.968947 68.160325 72.855469 68.1875 L 59.638672 71.359375 L 50.302734 80.873047 C 50.220186 80.957091 50.116894 81 50.001953 81 C 49.891322 81 49.78086 80.954892 49.699219 80.873047 L 49.697266 80.871094 L 40.361328 71.359375 L 27.148438 68.1875 L 27.146484 68.1875 C 27.034275 68.1598 26.936657 68.086429 26.878906 67.986328 L 26.878906 67.984375 C 26.821146 67.884765 26.806014 67.769508 26.839844 67.65625 L 27.798828 64.449219 z"/></svg>